<svg width="2000" height="2000" viewBox="0 0 2000 2000" fill="none" xmlns="http://www.w3.org/2000/svg">
<g clip-path="url(#clip0_477_28)">
<path d="M1103.14 1160.76C1141.24 1117.61 1162.15 1062.68 1168.45 1013.2H1228.76C1235.18 1050.34 1267.55 1078.6 1306.53 1078.6C1350.13 1078.6 1385.45 1043.25 1385.45 999.67C1385.45 956.093 1350.1 920.743 1306.53 920.743C1268 920.743 1235.94 948.348 1229.02 984.833H1170.49C1170.49 983.783 1170.55 982.705 1170.55 981.655V854.923L1103.17 821.162V707.141H1228.91C1235.6 743.966 1267.8 771.883 1306.56 771.883C1350.16 771.883 1385.48 736.533 1385.48 692.955C1385.48 649.378 1350.08 614 1306.5 614C1267.74 614 1235.54 641.917 1228.85 678.742H1100.27C1086.2 678.742 1074.74 690.204 1074.74 704.275V806.92L999.046 768.989L923.013 807.062V704.275C923.013 690.204 911.551 678.742 897.479 678.742H770.521C763.882 641.917 731.681 614 692.927 614C649.35 614 614 649.35 614 692.927C614 736.504 649.35 771.854 692.927 771.854C731.681 771.854 763.882 743.938 770.578 707.112H894.699V821.304L827.631 854.895V981.627C827.631 1037.86 848.483 1107.82 894.699 1160.36V1292.2H770.578C763.882 1255.38 731.681 1227.46 692.927 1227.46C649.321 1227.46 614 1262.81 614 1306.39C614 1349.96 649.35 1385.31 692.927 1385.31C731.681 1385.31 763.882 1357.4 770.578 1320.57H897.536C911.608 1320.57 923.07 1309.11 923.07 1295.04V1187.63C944.461 1204.9 969.711 1218.78 999.103 1227.43C1028.32 1218.81 1053.46 1205.02 1074.8 1187.88V1295.01C1074.8 1309.08 1086.26 1320.54 1100.33 1320.54H1228.91C1235.6 1357.37 1267.8 1385.28 1306.56 1385.28C1350.16 1385.28 1385.48 1349.93 1385.48 1306.36C1385.48 1262.78 1350.13 1227.43 1306.56 1227.43C1267.8 1227.43 1235.6 1255.35 1228.91 1292.17H1103.17V1160.7L1103.14 1160.76ZM1306.5 949.114C1334.39 949.114 1357.06 971.782 1357.06 999.67C1357.06 1027.56 1334.39 1050.23 1306.5 1050.23C1278.61 1050.23 1255.94 1027.56 1255.94 999.67C1255.94 971.782 1278.61 949.114 1306.5 949.114ZM1306.5 642.371C1334.39 642.371 1357.06 665.039 1357.06 692.927C1357.06 720.815 1334.39 743.484 1306.5 743.484C1278.61 743.484 1255.94 720.815 1255.94 692.927C1255.94 665.039 1278.61 642.371 1306.5 642.371ZM1306.5 1255.86C1334.39 1255.86 1357.06 1278.53 1357.06 1306.41C1357.06 1334.3 1334.39 1356.97 1306.5 1356.97C1278.61 1356.97 1255.94 1334.3 1255.94 1306.41C1255.94 1278.53 1278.61 1255.86 1306.5 1255.86Z" fill="#BCC1AB"/>
</g>
<defs>
<clipPath id="clip0_477_28">
<rect width="771.426" height="771.341" fill="white" transform="translate(614 614)"/>
</clipPath>
</defs>
</svg>
